<svg width="24" height="24" viewBox="0 0 24 24" fill="none" xmlns="http://www.w3.org/2000/svg">
<g clip-path="url(#clip0_12762_6133)">
<g clip-path="url(#clip1_12762_6133)">
<path d="M24 12C24 18.6274 18.6274 24 12 24C5.37258 24 0 18.6274 0 12C0 5.37258 5.37258 0 12 0C18.6274 0 24 5.37258 24 12Z" fill="black"/>
<path fill-rule="evenodd" clip-rule="evenodd" d="M12 23C18.0751 23 23 18.0751 23 12C23 5.92487 18.0751 1 12 1C5.92487 1 1 5.92487 1 12C1 18.0751 5.92487 23 12 23ZM12 24C18.6274 24 24 18.6274 24 12C24 5.37258 18.6274 0 12 0C5.37258 0 0 5.37258 0 12C0 18.6274 5.37258 24 12 24Z" fill="#FFDD99"/>
<rect x="5" y="7" width="4" height="1" fill="#FFDD99"/>
<rect x="3" y="11" width="6" height="1" fill="#FFDD99"/>
<rect x="5" y="15" width="4" height="1" fill="#FFDD99"/>
<path d="M11 2H12V6.12487L12.0041 6.1726C12.1324 6.26501 15.2622 8.51884 15.7898 8.89697C15.8968 8.97431 15.9198 9.07768 15.9428 9.18088C15.9481 9.20474 15.9535 9.22862 15.9598 9.25214C16.115 9.82477 16.2657 10.3984 16.4164 10.9718C16.468 11.1679 16.5197 11.3647 16.5714 11.5608C16.5839 11.6062 16.6088 11.6414 16.648 11.6697C17.0984 12 17.548 12.3303 17.9976 12.6615L18.2013 12.8112C18.4238 12.9745 18.6462 13.1378 18.8665 13.304L18.8656 13.3032C18.992 13.3984 19.0018 13.5468 18.9991 13.6824C18.9911 14.0539 18.7267 14.3378 18.3448 14.3902C18.189 14.4116 18.0412 14.3756 17.9103 14.2786C17.645 14.0829 17.3789 13.8884 17.1128 13.6939C16.663 13.3651 16.2126 13.0359 15.7675 12.7018C15.5387 12.5302 15.4132 12.2823 15.3411 12.0112C15.2949 11.8375 15.248 11.6641 15.2011 11.4907C15.1288 11.2231 15.0565 10.9555 14.9868 10.6874C14.9651 10.6045 14.9528 10.5195 14.9397 10.4289C14.9334 10.3856 14.9269 10.3409 14.9191 10.2945C14.8274 10.3658 14.7598 10.4457 14.6942 10.5233C14.6746 10.5465 14.655 10.5696 14.6351 10.5922C14.3983 10.8594 14.1639 11.1283 13.9295 11.3972C13.7612 11.5903 13.5927 11.7835 13.4235 11.976C13.2758 12.1442 13.1274 12.3115 12.979 12.4788C12.7973 12.6836 12.6156 12.8884 12.4353 13.0947C12.3419 13.2011 12.3436 13.292 12.4273 13.4061C12.9463 14.1131 13.4662 14.8208 13.9861 15.5277C14.0561 15.623 14.1262 15.7181 14.1964 15.8131C14.3505 16.0217 14.5045 16.2304 14.6556 16.4414C14.8461 16.7074 14.928 16.9939 14.8096 17.3131C14.7607 17.4452 14.6672 17.5456 14.5657 17.6373C14.393 17.7944 14.2255 17.9568 14.0581 18.119C13.9658 18.2084 13.8735 18.2979 13.7805 18.3863C13.5769 18.5791 13.3773 18.7768 13.1776 18.9746L13.0273 19.1232C12.8368 19.3111 12.6445 19.4964 12.4487 19.6792C12.389 19.7349 12 20 12 20V22H11V2Z" fill="#FFDD99"/>
<path d="M13.6856 5.95522C13.6811 7.06192 14.582 7.90782 15.7198 7.92154C16.8628 7.91039 17.7584 7.03961 17.7513 5.95264C17.7433 4.84851 16.8557 3.99318 15.7064 4.00004C14.5625 4.0069 13.6891 4.85623 13.6856 5.95522Z" fill="#FFDD99"/>
</g>
</g>
<defs>
<clipPath id="clip0_12762_6133">
<rect width="24" height="24" fill="white"/>
</clipPath>
<clipPath id="clip1_12762_6133">
<rect width="24" height="24" fill="white"/>
</clipPath>
</defs>
</svg>
